<?xml version="1.0" standalone="no"?>
<!DOCTYPE svg PUBLIC "-//W3C//DTD SVG 20010904//EN"
 "http://www.w3.org/TR/2001/REC-SVG-20010904/DTD/svg10.dtd">
<svg version="1.0" xmlns="http://www.w3.org/2000/svg"
 width="1337.000000pt" height="1337.000000pt" viewBox="0 0 1337.000000 1337.000000"
 preserveAspectRatio="xMidYMid meet">

<g transform="translate(0.000000,1337.000000) scale(0.100000,-0.100000)"
fill="#000000" stroke="none">
<path d="M13065 9160 l-171 -170 -76 0 c-42 0 -87 -4 -101 -9 -13 -5 -43 -39
-68 -75 -24 -36 -55 -71 -69 -78 -14 -7 -38 -25 -55 -40 -16 -16 -33 -28 -37
-28 -3 0 -16 -21 -28 -46 -17 -34 -35 -52 -75 -75 -75 -42 -85 -61 -85 -165 0
-99 -16 -136 -72 -168 -18 -10 -48 -33 -65 -49 -32 -30 -33 -33 -33 -115 0
-99 -16 -133 -82 -178 -96 -63 -88 -33 -88 -332 0 -256 -1 -265 -22 -295 -12
-18 -31 -39 -43 -47 -11 -8 -41 -34 -67 -59 l-48 -44 0 -216 0 -216 248 487
247 488 253 0 252 0 0 -1120 0 -1120 -210 0 -210 0 0 768 0 767 -281 -538
-280 -537 20 -26 c12 -15 39 -35 61 -46 22 -11 40 -25 40 -30 0 -6 8 -17 18
-24 15 -11 17 -35 20 -198 l3 -185 57 -51 c31 -27 59 -50 63 -50 4 0 17 -17
30 -37 12 -21 37 -54 55 -73 l33 -35 -34 -25 c-19 -14 -36 -35 -40 -48 -3 -12
-23 -40 -45 -61 l-39 -38 25 -13 c48 -26 64 -68 65 -171 l0 -94 35 -30 c19
-16 57 -51 84 -77 l50 -47 0 -85 0 -84 -40 -44 c-22 -23 -40 -46 -40 -50 0 -5
18 -26 40 -48 l40 -40 0 -94 c0 -90 1 -95 28 -119 15 -13 51 -46 80 -72 l52
-48 0 -94 0 -95 36 -36 c20 -20 44 -37 53 -39 9 -1 33 -20 54 -42 l37 -40 0
-349 0 -349 48 -44 c26 -25 56 -51 68 -59 44 -32 54 -60 54 -150 l0 -86 39
-38 39 -38 -39 -35 -39 -35 0 -100 0 -99 85 -84 85 -85 0 -87 0 -87 61 -58
c33 -32 72 -66 85 -74 13 -9 24 -21 24 -26 0 -6 41 -51 90 -101 l90 -91 0 -86
c0 -74 3 -90 20 -105 20 -18 20 -17 20 4008 l0 4027 -67 0 -67 0 -171 -170z"/>
<path d="M12414 3858 l-29 -33 33 29 c30 28 37 36 29 36 -2 0 -16 -15 -33 -32z"/>
<path d="M12335 3788 l-40 -43 43 40 c23 21 42 40 42 42 0 8 -9 0 -45 -39z"/>
</g>
</svg>
