<?xml version="1.0" standalone="no"?>
<!DOCTYPE svg PUBLIC "-//W3C//DTD SVG 20010904//EN"
 "http://www.w3.org/TR/2001/REC-SVG-20010904/DTD/svg10.dtd">
<svg version="1.0" xmlns="http://www.w3.org/2000/svg"
 width="326.000000pt" height="283.000000pt" viewBox="0 0 326.000000 283.000000"
 preserveAspectRatio="xMidYMid meet">

<g transform="translate(0.000000,283.000000) scale(0.100000,-0.100000)"
fill="#000000" stroke="none">
<path d="M620 1276 c-200 -58 -319 -232 -308 -453 3 -73 10 -100 35 -155 63
-134 193 -231 331 -244 61 -7 62 -7 62 18 0 23 -4 26 -55 31 -70 7 -147 43
-206 95 -26 23 -49 39 -52 36 -3 -3 -5 1 -4 8 1 7 -12 40 -29 73 -26 55 -29
69 -29 165 0 97 2 110 32 172 74 156 228 238 393 210 131 -22 236 -97 293
-207 29 -55 32 -68 32 -160 0 -85 -4 -107 -24 -148 -36 -74 -102 -98 -155 -56
-25 20 -26 24 -26 125 0 112 -12 159 -53 202 -84 90 -226 78 -296 -24 -35 -50
-39 -137 -9 -194 13 -25 29 -44 36 -42 6 1 11 -3 10 -9 -5 -18 67 -50 111 -51
65 -1 101 19 101 54 0 28 -1 29 -22 14 -31 -22 -106 -20 -144 3 -60 36 -81
127 -44 188 56 92 177 94 237 4 20 -30 23 -46 23 -138 0 -130 12 -164 69 -186
53 -22 76 -21 129 3 38 17 47 28 43 53 0 4 5 6 11 5 8 -2 13 6 12 19 0 12 3
20 7 17 17 -10 34 76 33 166 0 72 -5 108 -21 148 -44 110 -136 198 -253 243
-68 26 -206 34 -270 15z m387 -652 c-3 -3 -12 -4 -19 -1 -8 3 -5 6 6 6 11 1
17 -2 13 -5z"/>
<path d="M1322 953 c3 -320 4 -340 24 -384 86 -184 349 -256 552 -150 47 25
104 79 96 92 -3 5 0 8 7 7 7 -2 23 21 36 52 22 53 22 65 23 388 l0 332 -45 0
-45 0 0 -327 c0 -373 -2 -379 -80 -446 -60 -51 -125 -70 -219 -65 -134 8 -226
78 -250 189 -7 29 -11 174 -11 349 l0 300 -46 0 -46 0 4 -337z"/>
<path d="M2220 838 l0 -453 43 0 42 0 2 185 c1 102 3 193 3 203 0 16 16 17
195 17 l195 0 0 38 0 37 -193 0 -192 0 -5 168 c-3 93 -3 171 -1 173 2 2 114 4
248 4 l243 0 0 40 0 40 -290 0 -290 0 0 -452z m407 386 c-3 -3 -12 -4 -19 -1
-8 3 -5 6 6 6 11 1 17 -2 13 -5z"/>
</g>
</svg>
