<?xml version="1.0" standalone="no"?>
<!DOCTYPE svg PUBLIC "-//W3C//DTD SVG 20010904//EN"
 "http://www.w3.org/TR/2001/REC-SVG-20010904/DTD/svg10.dtd">
<svg version="1.0" xmlns="http://www.w3.org/2000/svg"
 width="516.000000pt" height="415.000000pt" viewBox="0 0 516.000000 415.000000"
 preserveAspectRatio="xMidYMid meet">

<g transform="translate(0.000000,415.000000) scale(0.100000,-0.100000)"
fill="#000000" stroke="none">
<path d="M2937 2595 c-4 -5 -19 -28 -32 -50 l-23 -40 -19 33 c-35 64 -34 63
-106 60 l-68 -3 61 -89 c33 -48 60 -93 60 -98 0 -5 -29 -53 -65 -105 -36 -52
-65 -97 -65 -99 0 -2 32 -4 70 -4 l70 0 28 50 c15 27 30 50 33 50 3 0 20 -22
37 -50 l31 -50 71 0 71 0 -71 105 -71 104 65 95 66 94 -67 4 c-37 1 -71 -1
-76 -7z"/>
<path d="M835 2520 l0 -80 93 0 92 0 0 -245 0 -245 100 0 100 0 0 245 0 245
90 0 90 0 0 80 0 80 -282 0 -283 0 0 -80z"/>
<path d="M1440 2275 l0 -325 275 0 275 0 0 80 0 80 -175 0 c-109 0 -175 4
-176 10 0 6 -1 25 -2 43 l-1 32 177 3 177 2 0 75 0 75 -177 2 -176 3 0 40 0
40 176 3 177 2 0 80 0 80 -275 0 -275 0 0 -325z"/>
<path d="M2030 2276 l0 -326 170 0 c194 0 247 9 321 53 45 27 59 43 89 101 34
66 35 74 35 175 0 93 -3 113 -26 161 -29 62 -74 110 -128 137 -31 15 -68 18
-248 21 l-213 3 0 -325z m359 137 c75 -55 82 -205 13 -267 -26 -22 -104 -38
-149 -30 l-33 6 0 152 c0 84 3 156 8 160 14 15 133 -1 161 -21z"/>
<path d="M3242 2363 c6 -275 13 -308 82 -371 85 -79 253 -82 350 -8 18 14 44
47 57 73 23 46 24 59 27 296 l4 247 -46 0 -45 0 -3 -242 c-3 -232 -4 -245 -26
-279 -42 -68 -165 -92 -233 -46 -67 44 -74 74 -77 335 l-4 232 -45 0 -45 0 4
-237z"/>
<path d="M3910 2275 l0 -325 45 0 45 0 0 150 0 150 160 0 160 0 0 35 0 35
-160 0 -160 0 0 100 0 100 180 0 180 0 0 40 0 40 -225 0 -225 0 0 -325z"/>
<path d="M1135 1790 c3 -5 10 -10 16 -10 5 0 9 5 9 10 0 6 -7 10 -16 10 -8 0
-12 -4 -9 -10z"/>
<path d="M1361 1793 c4 -22 -3 -31 -20 -26 -22 6 -51 -21 -51 -48 0 -42 18
-59 60 -57 l40 1 0 69 c0 54 -3 68 -15 68 -8 0 -14 -3 -14 -7z m9 -84 c0 -13
-29 -31 -40 -24 -14 9 -13 52 3 58 11 4 37 -19 37 -34z"/>
<path d="M1930 1780 c0 -13 -5 -17 -14 -14 -28 11 -56 -15 -56 -50 0 -42 15
-55 63 -53 l37 1 0 68 c0 54 -3 68 -15 68 -8 0 -15 -9 -15 -20z m-2 -71 c-1
-13 -10 -24 -18 -24 -19 0 -26 45 -8 56 18 11 30 -4 26 -32z"/>
<path d="M2204 1776 c-6 -14 -8 -28 -3 -33 4 -4 9 -24 11 -43 2 -27 8 -36 26
-38 22 -3 30 12 12 23 -13 8 -13 65 0 65 6 0 3 11 -6 25 -20 31 -26 31 -40 1z"/>
<path d="M2270 1730 c0 -56 3 -70 15 -70 12 0 15 14 15 70 0 56 -3 70 -15 70
-12 0 -15 -14 -15 -70z"/>
<path d="M2990 1790 c0 -5 4 -10 9 -10 6 0 13 5 16 10 3 6 -1 10 -9 10 -9 0
-16 -4 -16 -10z"/>
<path d="M3310 1780 c0 -13 -5 -17 -14 -14 -28 11 -56 -15 -56 -50 0 -42 15
-55 63 -53 l37 1 0 68 c0 54 -3 68 -15 68 -8 0 -15 -9 -15 -20z m-5 -66 c0
-19 -5 -29 -15 -29 -16 0 -25 28 -16 51 10 25 31 10 31 -22z"/>
<path d="M3400 1790 c0 -5 9 -10 20 -10 16 0 19 -8 22 -57 2 -46 7 -59 21 -61
15 -3 17 5 17 57 0 54 2 61 20 61 11 0 20 5 20 10 0 6 -27 10 -60 10 -33 0
-60 -4 -60 -10z"/>
<path d="M3530 1730 l0 -70 55 0 c42 0 55 3 55 15 0 11 -11 15 -40 15 -29 0
-40 4 -40 15 0 10 11 15 35 15 24 0 35 5 35 15 0 11 -11 15 -36 15 -48 0 -40
24 9 28 58 5 43 22 -18 22 l-55 0 0 -70z"/>
<path d="M3650 1730 l0 -70 40 0 c72 0 112 64 74 118 -12 18 -25 22 -65 22
l-49 0 0 -70z m76 42 c35 -24 20 -82 -21 -82 -22 0 -25 4 -25 38 0 50 16 65
46 44z"/>
<path d="M4272 1783 c-14 -26 0 -104 20 -117 21 -13 36 0 20 16 -16 16 -15 51
1 67 10 11 10 14 0 18 -7 3 -13 11 -13 19 0 20 -17 18 -28 -3z"/>
<path d="M1203 1763 c-20 -4 -23 -11 -23 -54 0 -37 4 -49 15 -49 11 0 15 11
15 41 0 33 3 40 18 37 12 -2 18 -14 20 -41 5 -55 32 -50 32 6 0 61 -14 72 -77
60z"/>
<path d="M1426 1757 c-22 -16 -19 -75 5 -90 18 -11 69 -2 69 14 0 5 -12 8 -26
7 -15 -2 -29 3 -31 10 -3 8 7 12 31 12 40 0 43 5 20 38 -17 25 -42 28 -68 9z
m38 -27 c-22 -9 -29 -6 -20 9 4 6 14 7 23 4 15 -6 14 -7 -3 -13z"/>
<path d="M1548 1763 c-27 -4 -28 -6 -28 -69 0 -50 3 -64 15 -64 8 0 15 8 15
18 0 13 8 18 27 17 18 0 31 7 39 23 l11 23 17 -26 c19 -28 57 -33 76 -10 11
13 9 15 -18 13 -42 -4 -41 16 1 22 30 4 34 8 26 27 -4 12 -17 24 -28 28 -25 8
-61 -10 -61 -30 0 -22 -14 -18 -25 7 -11 24 -23 28 -67 21z m46 -61 c-16 -25
-38 -21 -42 7 -5 30 18 45 38 25 11 -11 12 -19 4 -32z m101 38 c3 -5 -1 -10
-10 -10 -9 0 -13 5 -10 10 3 6 8 10 10 10 2 0 7 -4 10 -10z"/>
<path d="M1773 1763 c-20 -4 -23 -11 -23 -54 0 -37 4 -49 15 -49 11 0 15 11
15 41 0 33 3 40 18 37 12 -2 18 -14 20 -41 5 -58 23 -44 20 16 -3 55 -11 61
-65 50z"/>
<path d="M1990 1750 c-24 -24 -25 -38 -4 -68 18 -26 56 -29 75 -6 12 15 10 16
-19 10 -25 -6 -32 -4 -32 8 0 12 10 16 35 16 39 0 42 6 19 38 -19 27 -48 28
-74 2z m45 -10 c3 -5 -1 -10 -10 -10 -9 0 -13 5 -10 10 3 6 8 10 10 10 2 0 7
-4 10 -10z"/>
<path d="M2113 1763 c-20 -4 -23 -11 -23 -54 0 -37 4 -49 15 -49 11 0 15 11
15 41 0 33 3 40 18 37 12 -2 18 -14 20 -41 2 -24 8 -37 15 -34 16 5 21 61 7
87 -10 20 -22 22 -67 13z"/>
<path d="M2310 1756 c0 -7 7 -30 15 -49 8 -20 15 -41 15 -47 0 -5 -7 -10 -15
-10 -8 0 -15 -5 -15 -11 0 -6 12 -9 26 -7 22 2 30 13 50 65 12 34 19 65 15 68
-10 5 -24 -11 -36 -40 -7 -18 -9 -17 -21 13 -14 32 -34 43 -34 18z"/>
<path d="M2480 1750 c-11 -11 -20 -26 -20 -33 0 -24 31 -57 55 -57 50 0 73 60
37 93 -25 22 -48 21 -72 -3z m58 -39 c-4 -32 -34 -40 -43 -11 -8 25 11 51 31
43 9 -3 14 -16 12 -32z"/>
<path d="M2608 1762 c-26 -3 -28 -6 -28 -53 0 -37 4 -49 15 -49 10 0 15 10 15
34 0 23 7 38 22 48 25 17 15 25 -24 20z"/>
<path d="M2666 1755 c-32 -33 -17 -85 25 -85 29 0 38 -13 18 -26 -6 -3 -16 -1
-22 5 -15 15 -27 14 -27 -4 0 -20 43 -29 69 -15 18 9 21 20 21 70 0 41 -4 60
-12 60 -7 0 -22 3 -34 6 -13 3 -28 -1 -38 -11z m54 -41 c0 -19 -5 -25 -17 -22
-22 4 -30 38 -12 49 19 11 29 2 29 -27z"/>
<path d="M2783 1763 c-14 -5 -18 -33 -5 -33 4 0 13 5 19 11 13 13 36 3 28 -12
-4 -5 -17 -9 -30 -9 -29 0 -39 -13 -30 -40 5 -15 15 -19 51 -18 l44 1 0 41 c0
23 -5 47 -12 54 -12 12 -43 15 -65 5z m47 -63 c0 -12 -28 -25 -36 -17 -9 9 6
27 22 27 8 0 14 -5 14 -10z"/>
<path d="M2903 1763 c-20 -4 -23 -11 -23 -54 0 -59 16 -65 25 -9 4 25 12 40
21 40 10 0 14 -12 14 -40 0 -29 4 -40 15 -40 22 0 21 95 -1 104 -9 3 -19 5
-22 5 -4 -1 -17 -4 -29 -6z"/>
<path d="M3145 1754 c-20 -20 -16 -73 6 -87 18 -11 69 -2 69 14 0 5 -12 8 -26
7 -15 -2 -29 3 -31 10 -3 8 7 12 31 12 40 0 47 17 18 43 -23 21 -46 21 -67 1z
m55 -20 c0 -2 -9 -4 -21 -4 -11 0 -18 4 -14 10 5 8 35 3 35 -6z"/>
<path d="M3856 1754 c-19 -18 -21 -65 -4 -82 17 -17 63 -15 79 4 11 14 9 15
-21 12 -20 -2 -35 2 -37 10 -3 8 7 12 31 12 40 0 47 17 18 43 -23 21 -46 22
-66 1z m49 -14 c3 -5 -3 -10 -15 -10 -12 0 -18 5 -15 10 3 6 10 10 15 10 5 0
12 -4 15 -10z"/>
<path d="M3946 1748 c16 -55 34 -88 47 -88 16 0 49 97 36 106 -6 3 -15 -8 -22
-25 -13 -34 -27 -41 -27 -13 0 19 -18 42 -33 42 -4 0 -5 -10 -1 -22z"/>
<path d="M4057 1752 c-23 -25 -22 -69 2 -82 28 -15 57 -12 72 6 11 14 9 15
-21 12 -20 -2 -35 2 -37 10 -3 8 7 12 31 12 40 0 47 17 20 44 -21 21 -47 20
-67 -2z m48 -12 c3 -5 -3 -10 -15 -10 -12 0 -18 5 -15 10 3 6 10 10 15 10 5 0
12 -4 15 -10z"/>
<path d="M4177 1763 c-27 -4 -28 -7 -25 -50 4 -58 25 -69 30 -16 2 27 8 39 21
41 14 3 17 -4 17 -37 0 -30 4 -41 15 -41 11 0 15 11 15 43 0 42 -14 68 -34 66
-6 -1 -24 -4 -39 -6z"/>
<path d="M860 1752 c0 -4 5 -13 12 -20 10 -10 8 -19 -5 -42 -20 -33 -13 -39
15 -13 17 15 19 15 32 -3 20 -27 32 -10 13 19 -14 22 -14 27 -1 46 13 18 13
21 0 21 -8 0 -17 -6 -20 -12 -5 -10 -7 -10 -12 0 -6 13 -34 17 -34 4z"/>
<path d="M1132 1713 c4 -66 28 -70 28 -4 0 39 -4 51 -16 51 -12 0 -14 -10 -12
-47z"/>
<path d="M2990 1710 c0 -56 16 -68 24 -17 7 48 4 67 -11 67 -9 0 -13 -15 -13
-50z"/>
<path d="M3030 1750 c0 -5 9 -10 21 -10 l20 0 -20 -26 c-33 -42 -27 -54 24
-54 25 0 45 5 45 10 0 6 -11 10 -25 10 -14 0 -25 4 -25 8 0 5 11 19 25 32 35
33 32 40 -20 40 -25 0 -45 -4 -45 -10z"/>
<path d="M985 1730 c3 -5 26 -10 50 -10 24 0 47 5 50 10 4 6 -15 10 -50 10
-35 0 -54 -4 -50 -10z"/>
<path d="M985 1690 c3 -5 26 -10 50 -10 24 0 47 5 50 10 4 6 -15 10 -50 10
-35 0 -54 -4 -50 -10z"/>
</g>
</svg>
